<svg width="20" height="16" viewBox="0 0 20 16" fill="none" xmlns="http://www.w3.org/2000/svg">
<path d="M8.76131 0.21934C8.90171 0.359965 8.98061 0.550589 8.98061 0.74934C8.98061 0.948091 8.90171 1.13871 8.76131 1.27934L2.29131 7.74934L8.76131 14.2193C8.83501 14.288 8.89411 14.3708 8.93511 14.4628C8.97611 14.5548 8.99811 14.6541 8.99991 14.7548C9.00171 14.8555 8.98311 14.9555 8.94541 15.0489C8.90771 15.1423 8.85151 15.2272 8.78031 15.2984C8.70911 15.3696 8.62431 15.4257 8.53091 15.4635C8.43751 15.5012 8.33751 15.5197 8.23681 15.5179C8.13611 15.5162 8.03681 15.4941 7.94481 15.4531C7.85281 15.4121 7.77001 15.353 7.70131 15.2793L0.171312 7.74934L7.70131 0.21934C7.84191 0.0788896 8.03251 0 8.23131 0C8.43001 0 8.62071 0.0788896 8.76131 0.21934Z" fill="#F9F9F9"/>
<path d="M16.7613 0.21934C16.9017 0.359965 16.9806 0.550589 16.9806 0.74934C16.9806 0.948091 16.9017 1.13871 16.7613 1.27934L10.2913 7.74934L16.7613 14.2193C16.835 14.288 16.8941 14.3708 16.9351 14.4628C16.9761 14.5548 16.9981 14.6541 16.9999 14.7548C17.0017 14.8555 16.9831 14.9555 16.9454 15.0489C16.9077 15.1423 16.8516 15.2272 16.7803 15.2984C16.7091 15.3696 16.6243 15.4257 16.5309 15.4635C16.4375 15.5012 16.3375 15.5197 16.2368 15.5179C16.1361 15.5162 16.0368 15.4941 15.9448 15.4531C15.8528 15.4121 15.77 15.353 15.7013 15.2793L8.1713 7.74934L15.7013 0.21934C15.8419 0.0788896 16.0325 0 16.2313 0C16.43 0 16.6207 0.0788896 16.7613 0.21934Z" fill="#F9F9F9"/>
</svg>
